<svg width="16" height="16" viewBox="0 0 16 16" fill="none" xmlns="http://www.w3.org/2000/svg">
<path fill-rule="evenodd" clip-rule="evenodd" d="M2.90909 2.27273C2.74032 2.27273 2.57846 2.33977 2.45911 2.45911C2.33977 2.57846 2.27273 2.74032 2.27273 2.90909V8.63636C2.27273 8.80514 2.33977 8.967 2.45911 9.08634C2.57846 9.20568 2.74032 9.27273 2.90909 9.27273H3.54545C3.89691 9.27273 4.18182 9.55764 4.18182 9.90909C4.18182 10.2605 3.89691 10.5455 3.54545 10.5455H2.90909C2.40277 10.5455 1.91718 10.3443 1.55916 9.98629C1.20114 9.62827 1 9.14269 1 8.63636V2.90909C1 2.40277 1.20114 1.91718 1.55916 1.55916C1.91718 1.20114 2.40277 1 2.90909 1H8.63636C9.14269 1 9.62827 1.20114 9.98629 1.55916C10.3443 1.91718 10.5455 2.40277 10.5455 2.90909V3.54545C10.5455 3.89691 10.2605 4.18182 9.90909 4.18182C9.55764 4.18182 9.27273 3.89691 9.27273 3.54545V2.90909C9.27273 2.74032 9.20568 2.57846 9.08634 2.45911C8.967 2.33977 8.80514 2.27273 8.63636 2.27273H2.90909ZM7.36364 6.72727C7.01218 6.72727 6.72727 7.01218 6.72727 7.36364V13.0909C6.72727 13.4424 7.01218 13.7273 7.36364 13.7273H13.0909C13.4424 13.7273 13.7273 13.4424 13.7273 13.0909V7.36364C13.7273 7.01218 13.4424 6.72727 13.0909 6.72727H7.36364ZM5.45455 7.36364C5.45455 6.30927 6.30927 5.45455 7.36364 5.45455H13.0909C14.1453 5.45455 15 6.30927 15 7.36364V13.0909C15 14.1453 14.1453 15 13.0909 15H7.36364C6.30927 15 5.45455 14.1453 5.45455 13.0909V7.36364Z" fill="white"/>
</svg>
