<svg width="16" height="16" viewBox="0 0 16 16" fill="none" xmlns="http://www.w3.org/2000/svg">
<path fill-rule="evenodd" clip-rule="evenodd" d="M8 1C8.3866 1 8.7 1.3134 8.7 1.7V8.41005L11.005 6.10503C11.2784 5.83166 11.7216 5.83166 11.995 6.10503C12.2683 6.37839 12.2683 6.82161 11.995 7.09497L8.49497 10.595C8.22161 10.8683 7.77839 10.8683 7.50503 10.595L4.00503 7.09497C3.73166 6.82161 3.73166 6.37839 4.00503 6.10503C4.27839 5.83166 4.72161 5.83166 4.99497 6.10503L7.3 8.41005V1.7C7.3 1.3134 7.6134 1 8 1ZM1.7 9.4C2.0866 9.4 2.4 9.7134 2.4 10.1V12.9C2.4 13.0857 2.47375 13.2637 2.60503 13.395C2.7363 13.5263 2.91435 13.6 3.1 13.6H12.9C13.0857 13.6 13.2637 13.5263 13.395 13.395C13.5263 13.2637 13.6 13.0857 13.6 12.9V10.1C13.6 9.7134 13.9134 9.4 14.3 9.4C14.6866 9.4 15 9.7134 15 10.1V12.9C15 13.457 14.7788 13.9911 14.3849 14.3849C13.9911 14.7788 13.457 15 12.9 15H3.1C2.54305 15 2.0089 14.7788 1.61508 14.3849C1.22125 13.9911 1 13.457 1 12.9V10.1C1 9.7134 1.3134 9.4 1.7 9.4Z" fill="white"/>
</svg>
