<svg width="20" height="20" viewBox="0 0 20 20" fill="none" xmlns="http://www.w3.org/2000/svg">
<path fill-rule="evenodd" clip-rule="evenodd" d="M12.4 3.6C11.9582 3.6 11.6 3.24183 11.6 2.8C11.6 2.35817 11.9582 2 12.4 2H17.2C17.6418 2 18 2.35817 18 2.8V7.6C18 8.04183 17.6418 8.4 17.2 8.4C16.7582 8.4 16.4 8.04183 16.4 7.6V4.73137L12.1657 8.96569C11.8533 9.27811 11.3467 9.27811 11.0343 8.96569C10.7219 8.65327 10.7219 8.14673 11.0343 7.83431L15.2686 3.6H12.4ZM7.83431 11.0343C8.14673 10.7219 8.65327 10.7219 8.96569 11.0343C9.27811 11.3467 9.27811 11.8533 8.96569 12.1657L4.73137 16.4H7.6C8.04183 16.4 8.4 16.7582 8.4 17.2C8.4 17.6418 8.04183 18 7.6 18H2.8C2.35817 18 2 17.6418 2 17.2V12.4C2 11.9582 2.35817 11.6 2.8 11.6C3.24183 11.6 3.6 11.9582 3.6 12.4V15.2686L7.83431 11.0343Z" fill="white"/>
</svg>
