<svg width="16" height="16" viewBox="0 0 16 16" fill="none" xmlns="http://www.w3.org/2000/svg">
<path fill-rule="evenodd" clip-rule="evenodd" d="M8.00035 0.666992C8.25409 0.666992 8.48584 0.81104 8.59815 1.03858L10.5032 4.89797L14.7634 5.52067C15.0145 5.55736 15.2229 5.73337 15.3012 5.9747C15.3794 6.21604 15.3139 6.48088 15.1322 6.6579L12.05 9.6599L12.7774 13.901C12.8203 14.1511 12.7175 14.4039 12.5122 14.553C12.3068 14.7022 12.0347 14.7218 11.81 14.6037L8.00035 12.6002L4.19065 14.6037C3.96604 14.7218 3.69384 14.7022 3.48852 14.553C3.2832 14.4039 3.18037 14.1511 3.22327 13.901L3.95066 9.6599L0.868523 6.6579C0.686778 6.48088 0.621262 6.21604 0.699514 5.9747C0.777766 5.73337 0.986219 5.55736 1.23726 5.52067L5.4975 4.89797L7.40254 1.03858C7.51485 0.81104 7.7466 0.666992 8.00035 0.666992ZM8.00035 2.83983L6.53815 5.80208C6.44112 5.99864 6.25367 6.13495 6.03676 6.16665L2.76595 6.64473L5.13217 8.94942C5.28942 9.10258 5.36119 9.32333 5.32408 9.53969L4.7658 12.7948L7.69004 11.2569C7.8843 11.1548 8.11639 11.1548 8.31065 11.2569L11.2349 12.7948L10.6766 9.53969C10.6395 9.32333 10.7113 9.10258 10.8685 8.94942L13.2347 6.64473L9.96393 6.16665C9.74702 6.13495 9.55957 5.99864 9.46254 5.80208L8.00035 2.83983Z" fill="#646878"/>
</svg>
