<svg width="16" height="16" viewBox="0 0 16 16" fill="none" xmlns="http://www.w3.org/2000/svg">
<path fill-rule="evenodd" clip-rule="evenodd" d="M8.07988 2.85154C6.98682 2.6932 5.87297 2.90196 4.90619 3.44636C3.93941 3.99076 3.17208 4.84129 2.71982 5.86981C2.26756 6.89832 2.15488 8.04908 2.39875 9.14868C2.64263 10.2483 3.22985 11.2372 4.07192 11.9663C4.914 12.6954 5.96531 13.1253 7.06743 13.1911C8.16956 13.257 9.26278 12.9552 10.1824 12.3313C11.1019 11.7075 11.7981 10.7953 12.1658 9.73221C12.2829 9.39373 12.6465 9.21627 12.978 9.33586C13.3094 9.45544 13.4832 9.82678 13.3661 10.1653C12.9064 11.4941 12.0362 12.6343 10.8867 13.4142C9.73727 14.194 8.37074 14.5712 6.99309 14.4889C5.61544 14.4066 4.3013 13.8693 3.2487 12.9579C2.19611 12.0464 1.46208 10.8104 1.15724 9.43585C0.852394 8.06135 0.993247 6.6229 1.55857 5.33726C2.1239 4.05162 3.08307 2.98844 4.29154 2.30795C5.50001 1.62745 6.89232 1.36651 8.25865 1.56443C9.62172 1.76187 10.8853 2.40533 11.8598 3.39813L13.727 5.1938V2.79874C13.727 2.43975 14.012 2.14874 14.3635 2.14874C14.715 2.14874 15 2.43975 15 2.79874V6.69874C15 7.05772 14.715 7.34873 14.3635 7.34873H10.5446C10.1931 7.34873 9.90816 7.05772 9.90816 6.69874C9.90816 6.33975 10.1931 6.04874 10.5446 6.04874H12.7592L10.9803 4.33795C10.9756 4.33344 10.971 4.32886 10.9664 4.32421C10.186 3.52673 9.17295 3.00988 8.07988 2.85154Z" fill="white"/>
</svg>
