<svg width="16" height="16" viewBox="0 0 16 16" fill="none" xmlns="http://www.w3.org/2000/svg">
<path fill-rule="evenodd" clip-rule="evenodd" d="M7.50503 1.20503C7.77839 0.931658 8.22161 0.931658 8.49497 1.20503L11.995 4.70503C12.2683 4.97839 12.2683 5.42161 11.995 5.69497C11.7216 5.96834 11.2784 5.96834 11.005 5.69497L8.7 3.38995V10.1C8.7 10.4866 8.3866 10.8 8 10.8C7.6134 10.8 7.3 10.4866 7.3 10.1V3.38995L4.99497 5.69497C4.72161 5.96834 4.27839 5.96834 4.00503 5.69497C3.73166 5.42161 3.73166 4.97839 4.00503 4.70503L7.50503 1.20503ZM1.7 9.4C2.0866 9.4 2.4 9.7134 2.4 10.1V12.9C2.4 13.0857 2.47375 13.2637 2.60503 13.395C2.7363 13.5263 2.91435 13.6 3.1 13.6H12.9C13.0857 13.6 13.2637 13.5263 13.395 13.395C13.5263 13.2637 13.6 13.0857 13.6 12.9V10.1C13.6 9.7134 13.9134 9.4 14.3 9.4C14.6866 9.4 15 9.7134 15 10.1V12.9C15 13.457 14.7788 13.9911 14.3849 14.3849C13.9911 14.7788 13.457 15 12.9 15H3.1C2.54305 15 2.0089 14.7788 1.61508 14.3849C1.22125 13.9911 1 13.457 1 12.9V10.1C1 9.7134 1.3134 9.4 1.7 9.4Z" fill="white"/>
</svg>
